<svg height="512" viewBox="0 0 64 64" width="512" xmlns="http://www.w3.org/2000/svg"><g id="Checklist-delivery-logistics-2" data-name="Checklist-delivery-logistics"><path d="m10 9h44v50h-44z" fill="#2488ff"/><path d="m40 6v9h-16v-9h4.14a3.983 3.983 0 0 1 7.72 0z" fill="#005ece"/><path d="m22 21v6h-8v-8h8z" fill="#d80027"/><path d="m31 36h30v25h-30z" fill="#ffda44"/><path d="m35 53h4v4h-4z" fill="#d80027"/><path d="m49 36v6l-3-2-3 2v-6-5h6z" fill="#d80027"/><path d="m31 31h12v5h-12z" fill="#ff9811"/><path d="m49 31h12v5h-12z" fill="#ff9811"/><path d="m61 30h-6v-21a1 1 0 0 0 -1-1h-13v-2a1 1 0 0 0 -1-1h-3.43a4.981 4.981 0 0 0 -9.14 0h-3.43a1 1 0 0 0 -1 1v2h-13a1 1 0 0 0 -1 1v50a1 1 0 0 0 1 1h20v1a1 1 0 0 0 1 1h30a1 1 0 0 0 1-1v-30a1 1 0 0 0 -1-1zm-36-23h3.14a1 1 0 0 0 .97-.75 2.981 2.981 0 0 1 5.78 0 1 1 0 0 0 .97.75h3.14v7h-14zm5 24v27h-19v-48h12v5a1 1 0 0 0 1 1h16a1 1 0 0 0 1-1v-5h12v20h-22a1 1 0 0 0 -1 1zm18 1v8.13l-1.45-.96a.975.975 0 0 0 -1.1 0l-1.45.96v-8.13zm-6 0v3h-10v-3zm18 28h-28v-23h10v5a.984.984 0 0 0 .53.88.963.963 0 0 0 1.02-.05l2.45-1.63 2.45 1.63a1 1 0 0 0 1.55-.83v-5h10zm0-25h-10v-3h10z"/><path d="m25.4 17.2-2.4 1.8a1 1 0 0 0 -1-1h-8a1 1 0 0 0 -1 1v8a1 1 0 0 0 1 1h8a1 1 0 0 0 1-1v-5.5l3.6-2.7zm-4.4 3.3-2.91 2.18-1.38-1.39-1.42 1.42 2 2a1.008 1.008 0 0 0 1.31.09l2.4-1.8v3h-6v-6h6z"/><path d="m39 52h-4a1 1 0 0 0 -1 1v4a1 1 0 0 0 1 1h4a1 1 0 0 0 1-1v-4a1 1 0 0 0 -1-1zm-1 4h-2v-2h2z"/><path d="m42 56h8v2h-8z"/><path d="m42 52h4v2h-4z"/><path d="m25 26h26v2h-26z"/><path d="m13 31h2v2h-2z"/><path d="m17 31h11v2h-11z"/><path d="m13 36h2v2h-2z"/><path d="m17 36h11v2h-11z"/><path d="m13 41h2v2h-2z"/><path d="m17 41h11v2h-11z"/><path d="m13 46h2v2h-2z"/><path d="m17 46h11v2h-11z"/><path d="m13 51h2v2h-2z"/><path d="m17 51h11v2h-11z"/><path d="m27 10h10v2h-10z"/><circle cx="32" cy="7" r="2"/></g></svg>